<svg width="191" height="191" viewBox="0 0 191 191" fill="none" xmlns="http://www.w3.org/2000/svg">
<path d="M66.7495 183.624L68.8112 185.038L66.7495 183.624C65.969 184.762 64.414 185.052 63.2754 184.272L24.6488 157.823C23.5098 157.043 23.2185 155.488 23.9982 154.348L41.4325 128.876C44.6921 124.113 41.5765 117.608 35.8226 117.162L5.04701 114.778C3.67064 114.671 2.64119 113.469 2.74752 112.093L6.35322 65.418C6.4595 64.0421 7.66045 63.0126 9.03638 63.1178L39.8216 65.4715C45.5745 65.9114 49.6488 59.962 47.1592 54.7571L33.8421 26.9158C33.2465 25.6707 33.7726 24.1785 35.0175 23.5823L77.2525 3.35492C78.4973 2.75874 79.9898 3.28417 80.5866 4.52872L93.9309 32.3569C96.4256 37.5594 103.615 38.1143 106.879 33.3563L124.342 7.89507C125.123 6.7571 126.678 6.46675 127.816 7.24637L166.443 33.6952C167.582 34.4752 167.873 36.0308 167.094 37.17L149.659 62.6429C146.4 67.4054 149.515 73.9109 155.269 74.3566L186.045 76.7404C187.421 76.847 188.451 78.0491 188.344 79.4255L184.738 126.101C184.632 127.477 183.431 128.506 182.055 128.401L151.27 126.047C145.517 125.607 141.443 131.557 143.933 136.762L157.25 164.603C157.845 165.848 157.319 167.34 156.074 167.936L113.839 188.164C112.595 188.76 111.102 188.234 110.505 186.99L97.1611 159.162C94.6663 153.959 87.477 153.404 84.2134 158.162L66.7495 183.624Z" stroke="#66E389" stroke-opacity="0.45" stroke-width="5"/>
</svg>
